SplineFontDB: 1.0
FontName: Untitled1
FullName: Untitled1
FamilyName: Untitled1
Weight: Medium
Copyright: Created by PfaEdit 1.0
Version: 001.000
ItalicAngle: 0
UnderlinePosition: -130
UnderlineWidth: 50
Ascent: 800
Descent: 200
NeedsXUIDChange: 1
OS2TypoAscent: 0
OS2TypoAOffset: 1
OS2TypoDescent: 0
OS2TypoDOffset: 1
OS2TypoLinegap: 0
OS2WinAscent: 0
OS2WinAOffset: 1
OS2WinDescent: 0
OS2WinDOffset: 1
HheadAscent: 0
HheadAOffset: 1
HheadDescent: 0
HheadDOffset: 1
OS2Vendor: 'PfEd'
Encoding: ISO8859-1
UnicodeInterp: none
DisplaySize: -36
AntiAlias: 1
FitToEm: 1
WinInfo: 0 16 4
BeginChars: 272 44
StartChar: A
Encoding: 65 65 0
Width: 1000
Flags: H
Fore
284 423 m 5
 569 423 l 5
 580.04 423 589 414.04 589 403 c 132
 589 391.96 580.04 383 569 383 c 5
 284 383 l 5
 272.96 383 264 391.96 264 403 c 132
 264 414.04 272.96 423 284 423 c 5
701.387 12.682 m 1
 425.387 714.682 l 1
 421.347 724.956 426.408 736.574 436.682 740.613 c 0
 446.956 744.653 458.574 739.592 462.613 729.318 c 1
 738.613 27.318 l 1
 742.653 17.0435 737.592 5.42642 727.318 1.3869 c 0
 717.044 -2.65261 705.426 2.4076 701.387 12.682 c 1
796 0 m 1
 623 0 l 1
 611.96 1.35197e-15 603 8.96 603 20 c 0
 603 31.04 611.96 40 623 40 c 1
 796 40 l 1
 807.04 40 816 31.04 816 20 c 0
 816 8.96 807.04 -2.70393e-15 796 0 c 1
410 742 m 4
 604 742 l 5
 615.04 742 624 733.04 624 722 c 132
 624 710.96 615.04 702 604 702 c 5
 423.627 702 l 5
 152.613 12.682 l 5
 148.574 2.4076 136.956 -2.65261 126.682 1.3869 c 4
 116.408 5.42642 111.347 17.0435 115.387 27.318 c 5
 391.387 729.318 l 4
 395.782 738.101 400.218 741.124 410 742 c 4
58 40 m 1
 231 40 l 1
 242.04 40 251 31.04 251 20 c 0
 251 8.96 242.04 0 231 0 c 1
 58 0 l 1
 46.96 1.35197e-15 38 8.96 38 20 c 0
 38 31.04 46.96 40 58 40 c 1
EndSplineSet
EndChar
StartChar: B
Encoding: 66 66 1
Width: 1000
Flags: H
Fore
284 423 m 5
 569 423 l 5
 580.04 423 580 414.04 580 403 c 132
 580 391.96 580.04 383 569 383 c 5
 284 383 l 5
 272.96 383 273 391.96 273 403 c 132
 273 414.04 272.96 423 284 423 c 5
701.387 12.682 m 5
 425.387 714.682 l 5
 421.347 724.956 426.408 730.574 436.682 734.613 c 4
 446.956 738.653 458.574 739.592 462.613 729.318 c 5
 738.613 27.318 l 5
 742.653 17.0435 737.592 16.4268 727.318 12.3867 c 4
 717.044 8.34766 705.426 2.4076 701.387 12.682 c 5
796 0 m 5
 623 0 l 5
 611.96 1.35197e-15 603 8.96 603 20 c 4
 603 31.04 611.96 40 623 40 c 5
 796 40 l 5
 807.04 40 816 31.04 816 20 c 4
 816 8.96 807.04 -2.70393e-15 796 0 c 5
410 742 m 4
 604 742 l 5
 615.04 742 624 733.04 624 722 c 132
 624 710.96 615.04 702 604 702 c 5
 423.627 702 l 5
 152.613 12.682 l 5
 148.574 2.4076 136.956 8.34766 126.682 12.3867 c 4
 116.408 16.4268 111.347 17.0435 115.387 27.318 c 5
 391.387 729.318 l 4
 395.782 738.101 400.218 741.124 410 742 c 4
58 40 m 5
 231 40 l 5
 242.04 40 251 31.04 251 20 c 4
 251 8.96 242.04 0 231 0 c 5
 58 0 l 5
 46.96 1.35197e-15 38 8.96 38 20 c 4
 38 31.04 46.96 40 58 40 c 5
EndSplineSet
EndChar
StartChar: C
Encoding: 67 67 2
Width: 1000
Flags: H
Fore
701.387 12.682 m 1
 425.387 714.682 l 1
 421.347 724.956 426.408 736.574 436.682 740.613 c 0
 446.956 744.653 458.574 739.592 462.613 729.318 c 1
 738.613 27.318 l 1
 742.653 17.0435 737.592 5.42642 727.318 1.3869 c 0
 717.044 -2.65261 705.426 2.4076 701.387 12.682 c 1
410 742 m 1
 604 742 l 1
 615.04 742 624 733.04 624 722 c 128
 624 710.96 615.04 702 604 702 c 1
 410 702 l 1
 398.96 702 390 710.96 390 722 c 128
 390 733.04 398.96 742 410 742 c 1
EndSplineSet
EndChar
StartChar: D
Encoding: 68 68 3
Width: 1000
Flags: H
Fore
394 682 m 1
 394 194 l 1
 354 194 l 1
 354 682 l 1
 394 682 l 1
172 682 m 1
 562 682 l 1
 562 642 l 1
 172 642 l 1
 172 682 l 1
EndSplineSet
EndChar
StartChar: E
Encoding: 69 69 4
Width: 813
Flags: HW
Fore
126 536 m 1
 672 536 l 1
 672 447 l 1
 126 447 l 1
 126 536 l 1
125 60 m 25
 273 672 l 25
 354 672 l 25
 206 60 l 25
 125 60 l 25
EndSplineSet
EndChar
StartChar: F
Encoding: 70 70 5
Width: 777
Flags: HW
Fore
517 90 m 1
 953 90 l 1
 953 0 l 1
 402 0 l 1
 402 729 l 1
 953 729 l 1
 953 639 l 1
 517 639 l 1
 517 429 l 1
 905 429 l 1
 905 336 l 1
 517 336 l 1
 517 90 l 1
378 307 m 1
 378 599 l 1
 277 307 l 1
 378 307 l 1
438 729 m 5
 490 0 l 1
 378 0 l 1
 378 216 l 1
 246 216 l 1
 171 0 l 1
 59 0 l 1
 318 729 l 1
 438 729 l 5
EndSplineSet
EndChar
StartChar: G
Encoding: 71 71 6
Width: 777
Flags: HW
Fore
517 90 m 1
 953 90 l 1
 953 0 l 1
 405 36 l 1
 405 669 l 1
 953 729 l 1
 953 639 l 1
 517 639 l 1
 517 429 l 1
 905 429 l 5
 905 336 l 5
 517 336 l 1
 517 90 l 1
378 307 m 1
 378 599 l 1
 277 307 l 1
 378 307 l 1
438 729 m 1
 490 0 l 1
 378 0 l 1
 378 216 l 1
 246 216 l 1
 171 0 l 1
 59 0 l 1
 318 729 l 1
 438 729 l 1
EndSplineSet
EndChar
StartChar: H
Encoding: 72 72 7
Width: 777
Flags: HW
Fore
517 90 m 1
 953 90 l 1
 953 0 l 1
 401 27 l 1
 402 693 l 5
 953 729 l 1
 953 639 l 1
 517 639 l 1
 517 429 l 1
 905 429 l 1
 905 336 l 1
 517 336 l 1
 517 90 l 1
378 307 m 1
 378 599 l 1
 277 307 l 1
 378 307 l 1
438 729 m 1
 490 0 l 1
 378 0 l 1
 378 216 l 1
 246 216 l 1
 171 0 l 1
 59 0 l 1
 318 729 l 1
 438 729 l 1
EndSplineSet
EndChar
StartChar: I
Encoding: 73 73 8
Width: 777
Flags: HW
Fore
569.369 147.143 m 5
 965.752 328.738 l 5
 1003.24 246.916 l 5
 502.303 17.4229 l 5
 198.675 680.183 l 5
 699.608 909.674 l 5
 737.093 827.853 l 5
 340.71 646.258 l 5
 428.175 455.34 l 5
 780.92 616.943 l 5
 819.654 532.393 l 5
 466.909 370.791 l 5
 569.369 147.143 l 5
352.618 286.532 m 5
 231 552 l 5
 260.796 244.465 l 5
 352.618 286.532 l 5
231.403 695.177 m 5
 582.307 54.0762 l 5
 480.484 7.42676 l 5
 390.52 203.801 l 5
 270.514 148.823 l 5
 292.293 -78.7881 l 5
 190.47 -125.436 l 5
 122.307 645.198 l 5
 231.403 695.177 l 5
EndSplineSet
EndChar
StartChar: J
Encoding: 74 74 9
Width: 1000
Flags: HW
Fore
162 186 m 25
 435 621 l 25
 429 261 l 25
 162 186 l 25
 162 186 l 25
EndSplineSet
EndChar
StartChar: K
Encoding: 75 75 10
Width: 1000
Flags: HW
Fore
126 559 m 1
 126 472 l 1
 746 472 l 1
 746 559 l 1
 126 559 l 1
126 393 m 1
 126 306 l 1
 746 306 l 1
 746 393 l 1
 126 393 l 1
518 309 m 1
 518 0 l 1
 405 0 l 1
 405 310 l 1
 117 729 l 1
 240 729 l 1
 459 400 l 1
 667 729 l 1
 790 729 l 1
 518 309 l 1
EndSplineSet
EndChar
StartChar: L
Encoding: 76 76 11
Width: 1000
Flags: H
Fore
591 615 m 1
 591 93 l 1
 756 93 l 1
 756 615 l 1
 591 615 l 1
288 567 m 1
 1158 567 l 1
 1158 444 l 1
 288 444 l 1
 288 567 l 1
EndSplineSet
EndChar
StartChar: M
Encoding: 77 77 12
Width: 1000
Flags: H
Fore
221.237 600.931 m 1
 403.243 761.937 l 1
 784.886 330.515 l 5
 602.88 169.509 l 5
 221.237 600.931 l 1
131.357 521.422 m 1
 313.363 682.428 l 1
 695.006 251.006 l 1
 513 90 l 1
 131.357 521.422 l 1
EndSplineSet
EndChar
StartChar: N
Encoding: 78 78 13
Width: 777
Flags: HW
Fore
249 576 m 1
 450 576 l 1
 450 333 l 1
 249 333 l 1
 249 576 l 1
153 576 m 1
 354 576 l 1
 354 333 l 1
 153 333 l 1
 153 576 l 1
EndSplineSet
EndChar
StartChar: O
Encoding: 79 79 14
Width: 1000
Flags: H
Fore
122 0 m 29
 624 728 l 29
 708 728 l 29
 206 0 l 29
 122 0 l 29
172 361 m 6
 172 200 271 74 418 74 c 4
 564 74 663 200 663 361 c 4
 663 521 564 647 417 647 c 4
 271 647 172 521 172 360 c 6
 172 361 l 6
52 360 m 4
 52 583 197 745 417 745 c 4
 638 745 783 583 783 361 c 4
 783 138 638 -24 418 -24 c 4
 197 -24 52 138 52 360 c 4
EndSplineSet
EndChar
StartChar: P
Encoding: 80 80 15
Width: 854
Flags: HW
Fore
0 420 m 5
 318 420 l 5
 318 319 l 5
 0 319 l 5
 0 420 l 5
221 96 m 5
 364 96 l 6
 404 96 600 89 600 359 c 4
 600 628 474 643 317 643 c 6
 221 643 l 5
 221 96 l 5
370 729 m 6
 467 729 715 717 715 371 c 4
 715 22 450 0 368 0 c 6
 107 0 l 5
 107 729 l 5
 370 729 l 6
EndSplineSet
EndChar
StartChar: Q
Encoding: 81 81 16
Width: 712
Flags: HW
Fore
509 0 m 29
 509 708 l 29
 431 708 l 29
 89 249 l 29
 89 164 l 29
 623 164 l 29
 623 246 l 29
 194 246 l 29
 410 537 l 29
 410 0 l 29
 509 0 l 29
EndSplineSet
EndChar
StartChar: R
Encoding: 82 82 17
Width: 1123
Flags: HW
Back
99.6289 729 m 5
 212.629 729 l 5
 212.629 0 l 5
 99.6289 0 l 5
 99.6289 729 l 5
703.132 74 m 5
 849.132 74 948.132 200 948.132 361 c 4
 948.132 521 849.132 647 702.132 647 c 4
 556.132 647 456.85 510.94 457.132 360 c 28
 457.414 209.104 555.848 61.6484 703.132 74 c 5
337.132 360 m 4
 337.132 583 482.132 745 702.132 745 c 4
 923.132 745 1068.13 583 1068.13 361 c 4
 1068.13 138 923.132 -24 703.132 -24 c 4
 482.132 -24 337.132 138 337.132 360 c 4
356.43 409.84 m 5
 341.17 455.62 355.34 271.41 353.16 336.81 c 5
 201.65 336.81 l 5
 201.65 409.84 l 5
 356.43 409.84 l 5
EndSplineSet
Fore
99.6289 729 m 5
 212.629 729 l 5
 212.629 0 l 5
 99.6289 0 l 5
 99.6289 729 l 5
703.132 74 m 5
 849.132 74 948.132 200 948.132 361 c 4
 948.132 521 849.132 647 702.132 647 c 4
 556.132 647 456.85 510.94 457.132 360 c 28
 457.414 209.104 555.848 61.6484 703.132 74 c 5
337.132 360 m 4
 337.132 583 482.132 745 702.132 745 c 4
 923.132 745 1068.13 583 1068.13 361 c 4
 1068.13 138 923.132 -24 703.132 -24 c 4
 482.132 -24 337.132 138 337.132 360 c 4
356.43 409.84 m 5
 341.17 455.62 355.34 271.41 353.16 336.81 c 5
 201.65 336.81 l 5
 201.65 409.84 l 5
 356.43 409.84 l 5
EndSplineSet
EndChar
StartChar: S
Encoding: 83 83 18
Width: 1123
Flags: HW
Fore
337.132 360 m 4
 337.132 583 482.132 745 702.132 745 c 4
 923.132 745 1068.13 583 1068.13 361 c 4
 1068.13 138 923.132 -24 703.132 -24 c 4
 482.132 -24 337.132 138 337.132 360 c 4
356.43 409.84 m 5
 353.16 336.81 l 5
 201.65 336.81 l 5
 201.65 409.84 l 5
 356.43 409.84 l 5
EndSplineSet
EndChar
StartChar: T
Encoding: 84 84 19
Width: 1000
Flags: HW
Fore
848 0 m 1
 848 0 l 1
 848 0 l 1
 848 0 l 1
 848 0 l 1
560 506 m 1
 842 506 l 1
 842 444 l 1
 560 444 l 1
 560 506 l 1
672 0 m 1
 672 618 l 1
 742 618 l 1
 742.361 410.428 742 60 742 60 c 29
 742 60 789.333 59.9678 848 60 c 1
 848 0 l 1
 672 0 l 1
EndSplineSet
EndChar
StartChar: U
Encoding: 85 85 20
Width: 1000
Flags: H
Fore
183 336 m 25
 477 333 l 25
 480 219 l 25
 480 219 l 25
 480 219 l 25
 480 219 l 25
 480 219 l 25
 480 219 l 29
 171 192 l 25
 183 336 l 25
EndSplineSet
EndChar
StartChar: V
Encoding: 86 86 21
Width: 1000
Flags: HW
Fore
284 423 m 5
 569 423 l 5
 580.04 423 589 414.04 589 403 c 132
 589 391.96 580.04 383 569 383 c 5
 284 383 l 5
 272.96 383 264 391.96 264 403 c 132
 264 414.04 272.96 423 284 423 c 5
410 742 m 4
 604 742 l 5
 615.04 742 624 733.04 624 722 c 132
 624 710.96 615.04 702 604 702 c 5
 423.627 702 l 5
 152.613 12.682 l 5
 148.574 2.4076 136.956 -2.65261 126.682 1.3869 c 4
 116.408 5.42642 111.347 17.0435 115.387 27.318 c 5
 391.387 729.318 l 4
 395.782 738.101 400.218 741.124 410 742 c 4
EndSplineSet
EndChar
StartChar: W
Encoding: 87 87 22
Width: 1077
Flags: HW
HStem: 188.263 2.14525<723 740> 206.512 1.92166<712 716> 228.177 2.54594<704 712> 333.428 1.9277<724 740> 467.52 2.48523<249 264> 573.357 2.46826<276 283> 594.936 2.78223<271 276> 613.891 1.85632<244 265>
VStem: 170.179 19.9991<538.12 560.506> 324.343 0<571 575> 662.981 0<229 232>
Fore
662.981 233.647 m 0
 658.582 380.387 807.382 349.647 816.582 265.837 c 8
 820.279 232.166 806.377 202.539 762.582 191.018 c 24
 732.305 183.052 687.382 188.407 688.182 213.347 c 1
 686.582 230.747 716.182 240.027 723.382 217.987 c 0
 727.763 204.578 707.382 200.007 705.782 216.247 c 0
 705.782 216.247 l 0
 712.182 200.587 722.229 210.992 720.182 217.987 c 0
 714.582 237.126 688.182 226.688 692.182 213.347 c 1
 687.382 190.728 738.582 184.347 762.582 193.626 c 0
 801.738 208.768 796.981 244.667 796.981 265.547 c 0
 796.981 342.688 672.182 381.547 662.981 233.647 c 8
 662.981 233.647 663.413 219.251 662.981 233.647 c 0
324.343 570 m 0
 328.741 423.261 179.941 454 170.741 537.811 c 8
 167.044 571.481 180.945 601.108 224.741 612.63 c 24
 255.019 620.596 299.941 615.24 299.142 590.301 c 1
 300.741 572.9 271.142 563.62 263.941 585.66 c 0
 259.561 599.069 279.941 603.641 281.541 587.4 c 0
 281.541 587.4 l 0
 275.142 603.061 265.096 592.655 267.142 585.66 c 0
 272.741 566.521 299.142 576.96 295.142 590.301 c 1
 299.941 612.92 248.741 619.301 224.741 610.021 c 0
 185.585 594.88 190.343 558.98 190.343 538.101 c 0
 190.343 460.96 315.142 422.101 324.343 570 c 8
 324.343 570 323.91 584.396 324.343 570 c 0
982.566 797.91 m 29
 369.562 711.956 460.543 40.5439 4.75781 5.7373 c 29
 4.75781 5.7373 l 29
 473.074 4.08105 413.828 713.466 982.566 797.91 c 29
 982.566 797.91 l 29
EndSplineSet
EndChar
StartChar: X
Encoding: 88 88 23
Width: 1077
Flags: HW
Fore
982.566 797.91 m 29
 413.828 713.466 473.074 4.08105 4.75781 5.7373 c 29
 460.543 40.5439 369.562 711.956 982.566 797.91 c 29
EndSplineSet
EndChar
StartChar: Y
Encoding: 89 89 24
Width: 1083
Flags: HW
Fore
752.614 804 m 20
 932.614 676 1008.62 662 1020.62 728 c 4
 1031.14 785.906 962.614 786 964.614 748 c 4
 966.191 718.041 983.217 727.593 978.614 746 c 4
 972.614 770 1016.62 774 1008.62 732 c 4
 999.25 682.844 986.614 666 752.614 804 c 12
 752.614 804 l 20
752.614 804 m 21
 794.614 696 815.614 6 815.614 6 c 21
 833.614 290 837.614 650 862.614 738 c 13
 752.614 804 l 21
407.614 802 m 29
 735.496 808.634 755.614 264 815.614 6 c 13
 740.258 565.15 668.19 809.769 407.614 802 c 29
407.614 802 m 21
 449.614 694 470.614 4 470.614 4 c 21
 488.614 288 484.614 698 509.614 786 c 13
 475.614 799.899 441.614 801.35 407.614 802 c 21
64.6143 798 m 29
 392.496 804.634 412.614 260 472.614 2 c 13
 397.258 561.15 325.19 805.769 64.6143 798 c 29
64.6143 798 m 21
 106.614 690 127.614 0 127.614 0 c 21
 145.614 284 141.614 694 166.614 782 c 13
 132.614 795.9 98.6143 797.35 64.6143 798 c 21
EndSplineSet
EndChar
StartChar: Z
Encoding: 90 90 25
Width: 1109
Flags: HW
Fore
33.4502 797.91 m 21
 1014.79 797.91 l 5
 670.616 777.173 130.525 710.812 35.2158 640.305 c 13
 33.4502 797.91 l 21
EndSplineSet
EndChar
StartChar: bracketleft
Encoding: 91 91 26
Width: 1109
Flags: HW
Fore
1014.79 797.91 m 1
 401.786 711.956 492.767 40.5439 36.9805 5.7373 c 1
 36.9805 5.7373 l 1
 505.297 4.08105 446.05 713.466 1014.79 797.91 c 1
 1014.79 797.91 l 1
1018.32 5.7373 m 1
 36.9805 5.7373 l 1
 381.156 26.4746 921.246 92.835 1016.56 163.343 c 5
 1018.32 5.7373 l 1
EndSplineSet
EndChar
StartChar: backslash
Encoding: 92 92 27
Width: 1000
Flags: HW
Fore
105 262 m 25
 200 262 l 25
 105 0 l 25
 105 262 l 25
0 495 m 25
 200 495 l 25
 0 0 l 25
 0 495 l 25
EndSplineSet
EndChar
StartChar: bracketright
Encoding: 93 93 28
Width: 1000
Flags: HW
Fore
285 0 m 5
 285 756 l 5
 489 756 l 5
 489 0 l 5
 285 0 l 5
0 756 m 5
 777 756 l 5
 777 642 l 5
 0 642 l 5
 0 756 l 5
EndSplineSet
EndChar
StartChar: asciicircum
Encoding: 94 94 29
Width: 1000
Flags: HW
Fore
285 0 m 1
 285 642 l 1
 489 642 l 1
 489 0 l 1
 285 0 l 1
0 756 m 1
 777 756 l 1
 777 642 l 1
 0 642 l 1
 0 756 l 1
EndSplineSet
EndChar
StartChar: underscore
Encoding: 95 95 30
Width: 1000
Flags: HW
Fore
-952.462 4708.31 m 5
 -782.757 4779.02 -584.767 4878.02 -330.208 5005.3 c 5
 504.178 5839.68 l 5
 362.756 6122.53 l 5
 362.756 6136.67 376.898 6150.81 383.97 6157.88 c 4
 405.183 6179.1 1218.36 6384.16 1317.35 6285.16 c 4
 1415.56 6186.95 1296.13 5988.16 1253.71 5882.11 c 5
 1529.48 5295.21 1784.04 4602.25 2017.39 3774.93 c 5
 3735.66 3371.88 4471.05 3074.9 4951.88 2594.06 c 4
 5630.7 1915.24 5743.84 967.719 5319.57 543.455 c 4
 5234.72 458.602 5142.8 451.53 5050.88 543.455 c 4
 4909.45 684.876 4654.89 628.308 4280.13 366.678 c 5
 4237.7 366.678 4209.42 366.678 4188.2 387.891 c 4
 4174.06 402.033 4166.99 437.389 4166.99 479.814 c 5
 4760.96 1073.79 l 6
 5065.02 1377.84 4958.95 1696.04 4499.33 2240.51 c 5
 4025.57 2714.27 3191.18 3138.54 1883.04 3584.01 c 5
 1826.47 3640.58 l 5
 1451.7 4383.04 1062.79 5040.65 659.741 5613.41 c 5
 -217.071 4736.6 l 5
 3792.22 727.303 l 6
 4619.54 -100.013 5149.87 -616.2 5383.21 -821.262 c 4
 5503.42 -941.47 5425.64 -1259.67 5270.08 -1415.23 c 4
 5199.37 -1485.94 5107.44 -1464.73 5065.02 -1422.3 c 4
 4697.32 -1012.18 3806.37 -92.9414 2392.15 1321.27 c 6
 -323.138 4036.56 l 6
 -549.411 4262.84 -754.473 4439.61 -938.32 4566.89 c 4
 -987.817 4616.39 -980.746 4665.89 -952.462 4708.31 c 5
249.619 -1584.94 m 5
 1883.04 48.4795 l 5
 1416.35 515.17 l 5
 -217.071 -1118.25 l 5
 249.619 -1584.94 l 5
-1051.46 2445.57 m 5
 -1086.81 2848.62 -1086.81 2919.33 -1072.67 2933.48 c 4
 -987.817 3018.33 -379.706 3018.33 -323.138 2975.9 c 4
 -287.782 2940.55 -287.782 2869.84 -323.138 2792.05 c 5
 -952.462 2162.73 l 5
 -485.771 1696.04 l 5
 -118.076 2063.73 l 5
 -160.503 2332.43 l 6
 -160.503 2346.58 -160.503 2360.72 -153.432 2367.79 c 4
 -125.147 2396.07 560.746 2516.28 645.599 2431.43 c 4
 666.812 2410.22 673.883 2374.86 673.883 2346.58 c 6
 652.67 2084.95 l 5
 2370.94 366.678 l 6
 2491.15 246.47 2455.79 -15.1602 2314.37 -156.581 c 4
 2229.52 -241.434 2130.52 -199.008 2081.03 -149.51 c 5
 447.609 -1782.93 l 5
 596.102 -1931.42 511.249 -2200.12 369.827 -2341.54 c 4
 306.188 -2405.18 207.192 -2405.18 150.624 -2348.61 c 4
 -26.1523 -2129.41 -280.711 -1860.71 -605.979 -1535.44 c 6
 -1921.2 -220.221 l 6
 -2041.41 -100.013 -2161.62 -8.08887 -2260.61 48.4795 c 5
 -2310.11 97.9775 -2324.25 140.403 -2281.82 182.83 c 5
 -2140.4 253.541 -1935.34 359.606 -1666.64 515.17 c 5
 -832.254 1349.56 l 5
 -1298.94 1816.25 l 5
 -1631.29 1483.91 l 5
 -563.554 416.176 -386.777 126.262 -506.985 -686.911 c 5
 -521.127 -715.195 -521.127 -729.338 -535.27 -743.479 c 4
 -549.411 -757.622 -563.554 -757.622 -577.695 -743.479 c 4
 -591.838 -729.338 -598.909 -708.124 -613.051 -679.84 c 4
 -740.33 -170.724 -825.183 -15.1602 -1977.77 1137.42 c 5
 -2175.76 939.435 -2196.97 918.221 -2373.75 684.876 c 5
 -2493.96 748.516 -2600.02 783.871 -2699.02 783.871 c 5
 -2727.3 840.439 l 5
 -2493.96 1031.36 -2274.75 1222.28 -2069.69 1427.34 c 6
 -1051.46 2445.57 l 5
-1560.57 225.257 m 5
 -407.99 -927.327 l 5
 1225.43 706.089 l 5
 963.797 967.719 l 5
 709.238 713.16 l 5
 369.827 444.46 44.5586 472.744 -280.711 798.013 c 6
 -634.265 1151.57 l 5
 -1560.57 225.257 l 5
2625.5 -609.13 m 5
 2583.07 -184.865 2583.07 -142.439 2590.14 -135.368 c 4
 2646.71 -78.7998 2894.2 -57.5859 3346.75 -71.7285 c 5
 3403.32 -128.297 3417.46 -156.581 3367.96 -248.505 c 5
 1175.93 -2440.54 l 6
 744.594 -2871.87 702.168 -2928.44 461.751 -3239.57 c 5
 334.472 -3183 214.264 -3147.64 94.0557 -3140.57 c 5
 65.7715 -3084 l 5
 391.041 -2815.3 702.168 -2532.46 985.011 -2249.62 c 6
 2625.5 -609.13 l 5
58.7002 1151.57 m 6
 297.591 912.677 371.47 1096.64 603.173 1328.34 c 5
 72.8428 1858.67 l 5
 -287.782 1498.05 l 5
 58.7002 1151.57 l 6
-2656.59 3329.46 m 5
 -2691.95 3336.53 -2706.09 3336.53 -2720.23 3350.67 c 4
 -2748.51 3378.95 -2734.37 3421.38 -2691.95 3463.81 c 5
 -1397.94 3895.14 -754.473 3987.06 -549.411 3782 c 4
 -450.416 3683.01 -464.559 3456.73 -556.482 3364.81 c 4
 -641.335 3279.96 -874.681 3272.89 -1249.45 3336.53 c 4
 -1595.93 3400.17 -2013.12 3435.52 -2656.59 3329.46 c 5
2088.1 -2207.19 m 5
 2031.53 -2037.49 l 5
 2816.42 -1662.72 3990.21 -1238.45 4336.7 -1584.94 c 4
 4449.83 -1698.07 4449.83 -1811.21 4329.62 -1931.42 c 4
 4195.28 -2065.77 3997.29 -2108.2 3707.37 -2058.7 c 4
 3120.47 -1952.63 2738.63 -1995.06 2088.1 -2207.19 c 5
970.868 -1203.1 m 4
 1614.33 -771.764 1628.48 -757.622 1649.69 -778.835 c 4
 1706.28 -835.424 1633.68 -1050.47 1614.33 -1139.46 c 5
 2356.8 -2122.34 2441.65 -3423.41 1847.68 -4823.49 c 5
 1798.18 -4872.98 1755.76 -4887.12 1734.54 -4865.91 c 4
 1720.4 -4851.77 1713.33 -4816.42 1713.33 -4788.13 c 4
 2066.88 -3388.06 1854.75 -2270.83 1098.15 -1401.09 c 5
 1034.51 -1365.73 970.868 -1316.24 956.727 -1302.09 c 4
 928.441 -1273.81 935.513 -1238.45 970.868 -1203.1 c 4
-3321.27 -234.363 m 5
 -3165.71 -78.7998 l 5
 -3208.13 274.754 -3215.2 324.252 -3201.06 338.394 c 4
 -3151.56 387.891 -2649.52 366.678 -2571.74 303.038 c 4
 -2536.38 267.683 -2536.38 211.114 -2571.74 133.333 c 5
 -3130.35 -425.281 l 5
 1006.22 -4561.86 l 5
 1239.57 -4880.05 1239.57 -5403.31 1020.37 -5622.52 c 4
 942.584 -5700.3 857.731 -5686.16 765.808 -5594.23 c 4
 631.457 -5459.88 383.97 -5523.52 2.13184 -5792.22 c 5
 -54.4365 -5806.36 -89.792 -5799.29 -103.935 -5785.15 c 4
 -125.147 -5763.94 -132.219 -5728.58 -118.076 -5672.01 c 5
 426.396 -5127.54 l 6
 532.462 -5021.48 532.462 -4908.34 426.396 -4788.13 c 5
 -3533.4 -828.333 l 5
 -3929.38 -1224.31 -3943.52 -1252.6 -4169.8 -1549.58 c 5
 -4290.01 -1471.8 -4417.29 -1429.37 -4516.28 -1415.23 c 5
 -4544.56 -1358.66 l 5
 -4233.44 -1118.25 -4021.31 -934.398 -3724.32 -637.414 c 5
 -4735.48 373.749 l 6
 -5039.54 677.805 -5244.6 854.582 -5364.81 904.079 c 5
 -5400.16 939.435 -5414.31 981.86 -5364.81 1045.5 c 5
 -4721.34 1519.26 -4700.13 1540.47 -4664.77 1505.12 c 4
 -4603.21 1443.56 -4653.37 1223.17 -4664.77 1109.14 c 5
 -3321.27 -234.363 l 5
-3505.12 2353.65 m 4
 -3561.69 2410.22 -3561.69 2410.22 -3498.05 2473.86 c 5
 -3250.56 2551.64 -3024.29 2636.49 -2805.08 2742.56 c 5
 -2762.66 2742.56 -2734.37 2742.56 -2720.23 2728.41 c 4
 -2652.5 2660.69 -2793.54 2476.71 -2847.51 2389 c 5
 -2762.66 1653.61 -2840.44 571.739 -2981.86 402.033 c 4
 -3010.14 373.749 -3038.43 373.749 -3052.57 387.891 c 4
 -3066.71 402.033 -3073.78 423.246 -3080.85 458.602 c 4
 -3095 1080.86 -3356.62 2205.16 -3505.12 2353.65 c 4
-1412.08 -884.901 m 5
 -1362.58 -835.403 -1334.3 -821.262 -1313.09 -842.475 c 4
 -1242.38 -913.186 -1249.45 -934.398 -1899.99 -3168.86 c 5
 -1851.92 -3261.29 -1734.88 -3456.29 -1793.92 -3515.34 c 4
 -1815.13 -3536.55 -1857.56 -3536.55 -1914.13 -3522.41 c 5
 -2154.54 -3409.27 -2380.82 -3338.56 -2607.09 -3296.13 c 5
 -2720.23 -3183 -2727.3 -3175.93 -2691.95 -3140.57 c 4
 -2380.82 -2829.45 -2232.33 -2581.96 -1412.08 -884.901 c 5
EndSplineSet
EndChar
StartChar: a
Encoding: 97 97 31
Width: 672
Flags: HW
HStem: 10.5151 13.9335<95 102> 103.099 12.0067<195 203 206 246> 381.355 13.2072<358 363> 473.349 16.4493<331.041 350.257> 763.919 14.387<95 102>
Fore
120.585 54 m 8
 122.176 63.543 147.192 66.3164 144.585 57 c 16
 123.585 -18 51.3096 11.9688 54.585 48 c 16
 63.585 147 342.585 129 546.585 45 c 0
 649.822 2.49023 549.585 30 549.585 30 c 0
 342.585 123 93.585 126 72.585 51 c 8
 67.3984 32.4746 111.585 0 120.585 54 c 8
138.585 687 m 17
 180.585 579 204.585 102 204.585 102 c 17
 222.585 386 233.585 599 258.585 687 c 9
 138.585 687 l 17
EndSplineSet
EndChar
StartChar: accordion.accOldEE
Encoding: 256 -1 32
Width: 265
Flags: HW
TeX: 78 0 0 0
Fore
-47 410 m 0
 -47 436 -26 457 0 457 c 0
 26 457 47 436 47 410 c 0
 47 384 26 363 0 363 c 0
 -26 363 -47 384 -47 410 c 0
-47 110 m 0
 -47 136 -26 157 0 157 c 0
 26 157 47 136 47 110 c 0
 47 84 26 63 0 63 c 0
 -26 63 -47 84 -47 110 c 0
-20 410 m 1
 20 410 l 1
 8 260 l 1
 20 110 l 1
 -20 110 l 1
 -8 260 l 1
 -20 410 l 1
-153 366 m 0
 -153 392 -132 413 -106 413 c 0
 -80 413 -59 392 -59 366 c 0
 -59 340 -80 319 -106 319 c 0
 -132 319 -153 340 -153 366 c 0
59 154 m 0
 59 180 80 201 106 201 c 0
 132 201 153 180 153 154 c 0
 153 128 132 107 106 107 c 0
 80 107 59 128 59 154 c 0
-120 352 m 1
 -92 380 l 1
 6 265 l 1
 120 168 l 1
 92 140 l 1
 -6 254 l 1
 -120 352 l 1
-197 260 m 0
 -197 286 -176 307 -150 307 c 0
 -124 307 -103 286 -103 260 c 0
 -103 234 -124 213 -150 213 c 0
 -176 213 -197 234 -197 260 c 0
103 260 m 0
 103 286 124 307 150 307 c 0
 176 307 197 286 197 260 c 0
 197 234 176 213 150 213 c 0
 124 213 103 234 103 260 c 0
-150 240 m 1
 -150 279 l 1
 0 268 l 1
 150 279 l 1
 150 240 l 1
 0 252 l 1
 -150 240 l 1
-153 154 m 0
 -153 180 -132 201 -106 201 c 0
 -80 201 -59 180 -59 154 c 0
 -59 128 -80 107 -106 107 c 0
 -132 107 -153 128 -153 154 c 0
59 366 m 0
 59 392 80 413 106 413 c 0
 132 413 153 392 153 366 c 0
 153 340 132 319 106 319 c 0
 80 319 59 340 59 366 c 0
-92 140 m 1
 -120 168 l 1
 -6 265 l 1
 92 380 l 1
 120 352 l 1
 6 254 l 1
 -92 140 l 1
-47 110 m 0
 -47 136 -26 157 0 157 c 0
 26 157 47 136 47 110 c 0
 47 84 26 63 0 63 c 0
 -26 63 -47 84 -47 110 c 0
-47 410 m 0
 -47 436 -26 457 0 457 c 0
 26 457 47 436 47 410 c 0
 47 384 26 363 0 363 c 0
 -26 363 -47 384 -47 410 c 0
20 110 m 1
 -20 110 l 1
 -8 260 l 1
 -20 410 l 1
 20 410 l 1
 8 260 l 1
 20 110 l 1
-39 260 m 0
 -39 281 -22 299 0 299 c 0
 22 299 39 281 39 260 c 0
 39 238 22 221 0 221 c 0
 -22 221 -39 238 -39 260 c 0
236 260 m 1
 236 392 131 500 0 500 c 0
 -131 500 -236 392 -236 260 c 0
 -236 128 -131 20 0 20 c 0
 131 20 236 128 236 260 c 1
 264 260 l 1
 264 116 145 0 0 0 c 0
 -145 0 -264 116 -264 260 c 0
 -264 404 -145 520 0 520 c 0
 145 520 264 404 264 260 c 1
 236 260 l 1
EndSplineSet
EndChar
StartChar: accordion.accStdbase
Encoding: 257 -1 33
Width: 516
Flags: HW
TeX: 78 0 0 0
Fore
486 510 m 1
 486 780 269 1000 0 1000 c 0
 -269 1000 -486 780 -486 510 c 0
 -486 240 -269 20 0 20 c 0
 269 20 486 240 486 510 c 1
 514 510 l 1
 514 227 283 0 0 0 c 0
 -283 0 -514 227 -514 510 c 0
 -514 792 -283 1020 0 1020 c 0
 283 1020 514 792 514 510 c 1
 486 510 l 1
-500 520 m 1
 500 520 l 1
 500 500 l 1
 -500 500 l 1
 -500 520 l 1
-439 270 m 1
 439 270 l 1
 439 250 l 1
 -439 250 l 1
 -439 270 l 1
-439 770 m 1
 439 770 l 1
 439 750 l 1
 -439 750 l 1
 -439 770 l 1
EndSplineSet
EndChar
StartChar: accordion.accFreebase
Encoding: 258 -1 34
Width: 265
Flags: HW
TeX: 78 0 0 0
Fore
236 260 m 1
 236 392 131 500 0 500 c 0
 -131 500 -236 392 -236 260 c 0
 -236 128 -131 20 0 20 c 0
 131 20 236 128 236 260 c 1
 264 260 l 1
 264 116 145 0 0 0 c 0
 -145 0 -264 116 -264 260 c 0
 -264 404 -145 520 0 520 c 0
 145 520 264 404 264 260 c 1
 236 260 l 1
-250 270 m 1
 250 270 l 1
 250 250 l 1
 -250 250 l 1
 -250 270 l 1
EndSplineSet
EndChar
StartChar: flags.d4
Encoding: 259 -1 35
Width: 270
Flags: HW
TeX: 78 0 0 0
Fore
0 425 m 1
 0 225 l 1
 0 410 269 479 269 665 c 0
 269 691 264 717 255 742 c 0
 244 762 213 751 217 728 c 0
 225 708 230 686 230 665 c 0
 230 557 99 476 0 425 c 1
0 200 m 1
 0 0 l 1
 0 182 255 258 255 440 c 0
 255 480 244 520 226 556 c 0
 215 577 184 565 188 542 c 1
 206 511 216 476 216 440 c 0
 216 335 93 253 0 200 c 1
-14 0 m 1
 0 0 l 1
 0 500 l 1
 -14 500 l 1
 -14 0 l 1
EndSplineSet
EndChar
StartChar: flags.d5
Encoding: 260 -1 36
Width: 270
Flags: HW
TeX: 78 0 0 0
Fore
0 660 m 1
 0 450 l 1
 0 634 269 701 269 886 c 0
 269 912 264 938 255 963 c 0
 244 983 213 971 217 948 c 0
 225 928 230 907 230 886 c 0
 230 780 99 706 0 660 c 1
0 435 m 1
 0 225 l 1
 0 407 261 478 261 661 c 0
 261 702 248 743 226 778 c 0
 215 799 184 787 188 764 c 1
 209 734 222 698 222 661 c 0
 222 558 96 482 0 435 c 1
0 210 m 1
 0 0 l 1
 0 185 248 273 248 457 c 0
 248 492 237 525 220 554 c 0
 208 575 177 563 181 540 c 1
 198 516 209 487 209 457 c 0
 209 353 90 267 0 210 c 1
-14 0 m 1
 0 0 l 1
 0 750 l 1
 -14 750 l 1
 -14 0 l 1
EndSplineSet
EndChar
StartChar: flags.d6
Encoding: 261 -1 37
Width: 270
Flags: HW
TeX: 78 0 0 0
Fore
0 875 m 1
 0 675 l 1
 0 839 269 861 269 1026 c 0
 269 1046 267 1067 263 1088 c 0
 252 1108 221 1096 225 1073 c 0
 228 1058 230 1042 230 1026 c 0
 230 934 100 890 0 875 c 1
0 650 m 1
 0 450 l 1
 0 628 261 692 261 871 c 0
 261 902 255 933 247 963 c 0
 235 983 204 972 208 949 c 0
 217 924 222 897 222 871 c 0
 222 769 96 695 0 650 c 1
0 425 m 1
 0 225 l 1
 0 412 253 501 253 688 c 0
 253 726 248 763 239 800 c 0
 228 820 197 809 201 786 c 0
 209 754 214 721 214 688 c 0
 214 579 92 487 0 425 c 1
0 205 m 1
 0 5 l 1
 0 193 230 302 230 490 c 0
 230 527 229 563 227 600 c 1
 215 620 184 609 188 586 c 0
 190 554 191 522 191 490 c 0
 191 381 82 278 0 205 c 1
-14 0 m 1
 0 0 l 1
 0 1000 l 1
 -14 1000 l 1
 -14 0 l 1
EndSplineSet
EndChar
StartChar: flags.u5
Encoding: 262 -1 38
Width: 209
Flags: HW
TeX: 78 0 0 0
Fore
0 -647 m 1
 0 -435 l 1
 0 -609 209 -713 209 -887 c 0
 209 -948 193 -1007 167 -1062 c 0
 155 -1083 124 -1071 128 -1048 c 0
 154 -998 170 -943 170 -887 c 0
 170 -793 73 -707 0 -647 c 1
0 -430 m 1
 0 -217 l 1
 0 -390 202 -497 202 -669 c 0
 202 -708 192 -746 176 -780 c 0
 164 -801 133 -789 137 -766 c 1
 153 -736 163 -703 163 -669 c 0
 163 -577 70 -491 0 -430 c 1
0 -213 m 1
 0 0 l 1
 0 -177 192 -297 192 -474 c 0
 192 -505 184 -536 170 -564 c 0
 159 -584 128 -572 132 -549 c 1
 145 -527 153 -501 153 -474 c 0
 153 -379 66 -282 0 -213 c 1
-14 0 m 1
 0 0 l 1
 0 -750 l 1
 -14 -750 l 1
 -14 0 l 1
EndSplineSet
EndChar
StartChar: flags.u6
Encoding: 263 -1 39
Width: 209
Flags: HW
TeX: 78 0 0 0
Fore
0 -887 m 1
 0 -675 l 1
 0 -851 209 -958 209 -1134 c 0
 209 -1196 193 -1256 167 -1312 c 0
 155 -1333 124 -1321 128 -1298 c 0
 154 -1247 170 -1191 170 -1134 c 0
 170 -1039 73 -950 0 -887 c 1
0 -662 m 1
 0 -450 l 1
 0 -625 202 -734 202 -909 c 0
 202 -944 187 -978 163 -1004 c 0
 151 -1024 120 -1012 124 -989 c 1
 148 -969 163 -940 163 -909 c 0
 163 -815 70 -726 0 -662 c 1
0 -438 m 1
 0 -225 l 1
 0 -400 202 -509 202 -684 c 0
 202 -725 190 -765 170 -801 c 0
 159 -822 128 -810 132 -787 c 1
 151 -756 163 -721 163 -684 c 0
 163 -590 70 -501 0 -438 c 1
0 -213 m 1
 0 0 l 1
 0 -179 192 -303 192 -482 c 0
 192 -515 184 -547 170 -577 c 0
 159 -597 128 -586 132 -563 c 0
 145 -538 153 -510 153 -482 c 0
 153 -384 66 -285 0 -213 c 1
-14 0 m 1
 0 0 l 1
 0 -1000 l 1
 -14 -1000 l 1
 -14 0 l 1
EndSplineSet
EndChar
StartChar: scripts.lineprall
Encoding: 264 -1 40
Width: 314
Flags: HW
TeX: 78 0 0 0
Fore
-288 2 m 1
 -297 -11 l 1
 -328 11 l 1
 -258 117 l 2
 -254 122 -248 125 -242 125 c 0
 -236 125 -231 122 -227 118 c 2
 -128 -2 l 1
 -120 11 l 1
 -88 -11 l 1
 -159 -117 l 2
 -163 -122 -168 -125 -175 -125 c 0
 -181 -125 -186 -122 -189 -118 c 2
 -288 2 l 1
-320 -45 m 2
 -323 -50 -329 -54 -336 -54 c 0
 -346 -54 -355 -45 -355 -35 c 0
 -355 -31 -353 -27 -351 -24 c 2
 -328 11 l 1
 -297 -11 l 1
 -320 -45 l 2
-355 465 m 2
 -355 476 -346 484 -336 484 c 0
 -325 484 -317 476 -317 465 c 2
 -317 -35 l 1
 -355 -35 l 1
 -355 465 l 2
-80 2 m 1
 -88 -11 l 1
 -120 11 l 1
 -49 117 l 2
 -46 122 -40 125 -33 125 c 0
 -28 125 -22 122 -19 118 c 2
 80 -2 l 1
 88 11 l 1
 120 -11 l 1
 49 -117 l 2
 46 -122 40 -125 33 -125 c 0
 28 -125 22 -122 19 -118 c 2
 -80 2 l 1
128 2 m 1
 120 -11 l 1
 88 11 l 1
 159 117 l 2
 163 122 168 125 175 125 c 0
 181 125 186 122 189 118 c 2
 288 -2 l 1
 297 11 l 1
 328 -11 l 1
 258 -117 l 2
 254 -122 248 -125 242 -125 c 0
 236 -125 231 -122 227 -118 c 2
 128 2 l 1
320 45 m 2
 323 50 329 54 336 54 c 0
 346 54 355 45 355 35 c 0
 355 31 353 27 351 24 c 2
 328 -11 l 1
 297 11 l 1
 320 45 l 2
EndSplineSet
EndChar
StartChar: scripts.varcoda
Encoding: 265 -1 41
Width: 252
Flags: HW
TeX: 78 0 0 0
Fore
117 224 m 2
 -117 224 l 2
 -121 224 -125 228 -125 232 c 2
 -125 242 l 2
 -125 246 -121 250 -117 250 c 2
 117 250 l 2
 121 250 125 246 125 242 c 2
 125 232 l 2
 125 228 121 224 117 224 c 2
-90 -250 m 2
 -159 -250 l 2
 -163 -250 -167 -246 -167 -242 c 2
 -167 242 l 2
 -167 246 -163 250 -159 250 c 2
 -90 250 l 2
 -86 250 -83 246 -83 242 c 2
 -83 -242 l 2
 -83 -246 -86 -250 -90 -250 c 2
-117 -224 m 2
 117 -224 l 2
 121 -224 125 -228 125 -232 c 2
 125 -242 l 2
 125 -246 121 -250 117 -250 c 2
 -117 -250 l 2
 -121 -250 -125 -246 -125 -242 c 2
 -125 -232 l 2
 -125 -228 -121 -224 -117 -224 c 2
90 250 m 2
 159 250 l 2
 163 250 167 246 167 242 c 2
 167 -242 l 2
 167 -246 163 -250 159 -250 c 2
 90 -250 l 2
 86 -250 83 -246 83 -242 c 2
 83 242 l 2
 83 246 86 250 90 250 c 2
0 -347 m 0
 -7 -347 -13 -341 -13 -334 c 2
 -13 334 l 2
 -13 341 -7 347 0 347 c 0
 7 347 13 341 13 334 c 2
 13 -334 l 2
 13 -341 7 -347 0 -347 c 0
251 -13 m 2
 -251 -13 l 2
 -258 -13 -264 -7 -264 0 c 0
 -264 7 -258 13 -251 13 c 2
 251 13 l 2
 258 13 264 7 264 0 c 0
 264 -7 258 -13 251 -13 c 2
EndSplineSet
EndChar
StartChar: scripts.coda
Encoding: 266 -1 42
Width: 255
Flags: HW
TeX: 78 0 0 0
Fore
-167 0 m 1
 -167 125 -111 250 0 250 c 0
 111 250 167 125 167 0 c 0
 167 -125 111 -250 0 -250 c 0
 -111 -250 -167 -125 -167 0 c 1
 -93 0 l 1
 -93 -105 -90 -224 0 -224 c 0
 90 -224 93 -105 93 0 c 0
 93 105 90 224 0 224 c 0
 -90 224 -93 105 -93 0 c 1
 -167 0 l 1
0 -350 m 0
 -7 -350 -13 -345 -13 -338 c 2
 -13 338 l 2
 -13 345 -7 350 0 350 c 0
 7 350 13 345 13 338 c 2
 13 -338 l 2
 13 -345 7 -350 0 -350 c 0
254 -13 m 2
 -254 -13 l 2
 -261 -13 -267 -7 -267 0 c 0
 -267 7 -261 13 -254 13 c 2
 254 13 l 2
 261 13 267 7 267 0 c 0
 267 -7 261 -13 254 -13 c 2
EndSplineSet
EndChar
StartChar: exclam
Encoding: 33 33 43
Width: 1000
VWidth: 1058
Flags: HW
TeX: 101 0 0 0
Fore
194.995 753.005 m 1
 575.659 753.005 l 1
 428.057 112.463 339.419 -3.66504 243.33 -3.66504 c 0
 164.697 -3.66504 85 76.0078 85 204.665 c 0
 85 418.825 276.592 579.675 538.33 579.675 c 0
 758.945 579.675 914.995 444.553 914.995 256.335 c 0
 914.995 54.9141 806.538 -40.335 699.995 -40.335 c 0
 607.51 -40.335 540.83 16.9893 540.83 98.835 c 0
 540.83 178.049 604.326 232.17 698.33 232.17 c 0
 765.903 232.17 838.804 194.099 889.614 130.134 c 1
 857.041 105.031 l 1
 813.901 157.155 753.97 188 699.995 188 c 0
 630.161 188 586.665 153.479 586.665 99.6699 c 0
 586.665 42.4141 632.734 3.83496 699.995 3.83496 c 0
 800.278 3.83496 869.995 99.5918 869.995 256.335 c 0
 869.995 419.421 733.12 536.34 538.33 536.34 c 0
 302.827 536.34 129.995 394.206 129.995 204.665 c 0
 129.995 104.401 188.799 43 243.33 43 c 0
 312.163 43 390.215 174.836 520.962 711.34 c 1
 471.206 711.34 194.995 711.34 194.995 711.34 c 1
 194.995 753.005 l 1
EndSplineSet
Comment: "This glyph worked fine on i?86 but failed due to a rounding error on PPC. 11-Dec-2005" 
Colour: ffffff
EndChar
